<svg xmlns="http://www.w3.org/2000/svg" width="38.449" height="35.964" viewBox="0 0 38.449 35.964"><defs><style>.a,.b{fill:none;stroke:#243f8f;stroke-linecap:round;stroke-width:2px;}.a{stroke-linejoin:round;}.b{stroke-miterlimit:10;}</style></defs><g transform="translate(1528.842 6358.566)"><path class="a" d="M-1517.9-6349.566h-7.458a2.441,2.441,0,0,0-2.482,2.485" transform="translate(0 -1.372)"/><path class="a" d="M-1492.386-6344.6v-4.97h-7.456" transform="translate(-4.805 -1.372)"/><path class="a" d="M-1498.647-6345.969l-11.6-11.6-11.6,11.6" transform="translate(-1.03)"/><path class="a" d="M-1503.246-6344.407l-4.034-4.057a2.2,2.2,0,0,1-3.515,0l-4.053,4.055" transform="translate(-2.23 -1.562)"/><path class="a" d="M-1493.05-6328.342v6.627h-32.307a2.443,2.443,0,0,1-2.485-2.485v-22.366a2.443,2.443,0,0,0,2.485,2.485h32.307v5.8" transform="translate(0 -1.887)"/><path class="a" d="M-1498.7-6334.91a4,4,0,0,0-4.142,4.143,4,4,0,0,0,4.142,4.142h9.112a2.485,2.485,0,0,0,2.485-2.485v-6.628a.827.827,0,0,0-.828-.828h-.828a1.8,1.8,0,0,1-1.657,1.656h-8.284" transform="translate(-4.29 -3.603)"/><line class="b" x2="1.657" transform="translate(-1503.818 -6334.372)"/></g></svg>