<svg xmlns="http://www.w3.org/2000/svg" width="45.388" height="40.613" viewBox="0 0 45.388 40.613"><defs><style>.a,.b,.c{fill:none;stroke:#243f8f;stroke-linecap:round;stroke-width:2px;}.a,.b{stroke-linejoin:round;}.b,.c{stroke-miterlimit:10;}</style></defs><g transform="translate(1 1)"><g transform="translate(0)"><path class="a" d="M-2157.661-6384.838a2.266,2.266,0,0,0-1.91-.955H-2173.9c-1.061,0-6.9-5.853-7.64-6.685a51.11,51.11,0,0,1-4.775-7.64,3.821,3.821,0,0,1,3.82-.955c1.688.392,2.681,1.6,3.82,3.82l4.379,2.273" transform="translate(2186.31 6416.353)"/><path class="a" d="M-2182.85-6391.381h-8.594c-3.82,0-3.82-4.775,0-4.775h6c.8,0,2.288-1.91,3.549-1.91h4.775a6.673,6.673,0,0,1,3.82,1.91l3.82,3.82" transform="translate(2205.77 6416.211)"/><rect class="a" width="6.753" height="16.206" transform="translate(31.515 38.199) rotate(-135)"/><line class="a" x1="1.91" y2="1.91" transform="translate(36.29 26.739)"/><path class="b" d="M-2187.311-6401.787v-15.28h26.739v18.145" transform="translate(2190.176 6417.067)"/><path class="b" d="M-2177.311-6417.067v3.82h7.64v-3.82" transform="translate(2189.726 6417.067)"/><line class="c" x1="0.313" transform="translate(24.83 14.325)"/><line class="c" x1="0.313" transform="translate(21.965 14.325)"/><line class="c" x1="0.313" transform="translate(19.1 14.325)"/></g></g></svg>