<svg xmlns="http://www.w3.org/2000/svg" width="43.796" height="43.795" viewBox="0 0 43.796 43.795"><defs><style>.a,.b{fill:none;stroke:#243f8f;stroke-linecap:round;stroke-miterlimit:10;stroke-width:2px;}.a{stroke-linejoin:round;}</style></defs><g transform="translate(-1299.85 -406.214)"><g transform="translate(1300.85 407.214)"><g transform="translate(0 0)"><path class="a" d="M-1990.565-6020.811l.674-1.348-.674-2.7-1.348-2.7h2.7l1.348,2.022" transform="translate(2018.204 6040.36)"/><path class="a" d="M-1996.066-6036.12l-1.206.6a.671.671,0,0,1-.3.071h-2.082a.675.675,0,0,0-.626.424l-.743,1.856a.673.673,0,0,0,.644.923,3.071,3.071,0,0,1,2.228.78.591.591,0,0,0,.138.1l.9.45a.675.675,0,0,1,.372.6v.257a.674.674,0,0,1-.673.674h-1.914a.677.677,0,0,1-.213-.034l-1.364-.454a.673.673,0,0,0-.816.337l-.947,1.894a.676.676,0,0,0-.017.567l1.9,4.432,1.348.673" transform="translate(2019.66 6041.512)"/><path class="a" d="M-2008.085-6037.57a.674.674,0,0,1-.1,1.038l-.777.518a.673.673,0,0,0-.187.934l.381.572a.674.674,0,0,1-.466,1.041l-3.274.467a.675.675,0,0,0-.531.417l-1.033,2.584a.675.675,0,0,1-.626.424h-1.286a.678.678,0,0,0-.477.2l-.737.738a.673.673,0,0,0-.062.881l1.528,2.038a.673.673,0,0,0,.375.249l2.283.571a.672.672,0,0,1,.313.178l1.738,1.737a.667.667,0,0,0,.365.188l3.053.509a.674.674,0,0,1,.529.877l-1.011,3.031a.676.676,0,0,1-.337.39l-.727.363a.674.674,0,0,0-.372.6v1.605s0,2.022.674,2.7-3.371-.674-4.045-2.7a7.364,7.364,0,0,0-1.348-2.7l-2.622-3.277a.671.671,0,0,1-.114-.208l-.636-1.907" transform="translate(2021.661 6041.708)"/><path class="a" d="M-2005.436-6008.646a16.852,16.852,0,0,1-16.853-16.852,16.853,16.853,0,0,1,16.853-16.853,16.853,16.853,0,0,1,16.853,16.853,16.962,16.962,0,0,1-.215,2.7" transform="translate(2022.289 6042.35)"/></g><g transform="translate(21.572 22.92)"><rect class="a" width="20.224" height="18.875" rx="0.779"/><path class="a" d="M-1983.4-6015.869v4.044h-5.393v-4.044" transform="translate(1996.213 6015.869)"/><line class="b" x1="2.696" transform="translate(13.482 14.831)"/></g></g></g></svg>