<svg xmlns="http://www.w3.org/2000/svg" width="121.69" height="51.199" viewBox="0 0 121.69 51.199"><defs><style>.a{fill:#fff;}</style></defs><path class="a" d="M111.622,13.565V28.227H91.375a6.612,6.612,0,0,1-5.865-2.756c-1.715,2.6-4.31,3.138-7.1,3.064a7.448,7.448,0,0,1-6.92-3.812,2.155,2.155,0,0,1-.147.44A6.2,6.2,0,0,1,65.63,28.3h-31.1a9.325,9.325,0,0,0-2.111.235,3.445,3.445,0,0,0-2.8,3.827,3.152,3.152,0,0,0,3.226,2.932c1.466.132,3.035.1,4.56.132h.968V38.8c-2.932,0-5.777.293-8.548-.748A6.187,6.187,0,0,1,26.044,31a6.407,6.407,0,0,1,6.011-5.865,23.341,23.341,0,0,1,2.683-.191H47.684c.88,0,1.232-.279,1.334-1.1s.293-1.466.337-2.287a4.266,4.266,0,0,0-2.522-4.3,11.363,11.363,0,0,0-6.92-.821c-1.554.22-3.079.66-4.75,1.026L34.21,14.46a22.8,22.8,0,0,1,10.776-1.276,9.383,9.383,0,0,1,5.219,2.434,7.7,7.7,0,0,1,2.229,6.3,24.9,24.9,0,0,1-.323,2.932h6.334V15.31h3.387v9.706a42.274,42.274,0,0,0,5.19-.293,3.4,3.4,0,0,0,3.006-3.284c.117-1.466,0-2.932.1-4.4V15.281h3.387v4.53a9.193,9.193,0,0,0,.249,2.287,3.665,3.665,0,0,0,2.859,2.786,8.8,8.8,0,0,0,3.211.073,3.973,3.973,0,0,0,3.24-4.281V13.36h3.4v6.832A4.237,4.237,0,0,0,91.126,24.9h2.742a24.925,24.925,0,0,1-.689-3.739,6.847,6.847,0,0,1,6.568-7.565c3.827-.293,7.683-.147,11.539-.191A1.032,1.032,0,0,1,111.622,13.565Zm-3.372,3.357c-2.859,0-5.63-.132-8.372,0a3.592,3.592,0,0,0-3.46,3.812,3.739,3.739,0,0,0,3.269,3.988,4.809,4.809,0,0,0,1.012.147h7.551Z" transform="translate(9.877 5.626)"/><path class="a" d="M80.185,8.777a1.935,1.935,0,1,1,0,3.856A1.979,1.979,0,0,1,78,10.7a1.906,1.906,0,0,1,2.185-1.921Z" transform="translate(34.16 3.642)"/><path class="a" d="M59.07,30.53h5.278v.85H60.316v2.126h3.739v.85H60.316v2.932H59.07Z" transform="translate(25.336 13.791)"/><path class="a" d="M68.795,35.528H65.364L64.4,37.3H63.15l3.592-6.832h.645L70.994,37.3h-1.32Zm-3.05-.792h2.7l-1.012-1.921-.323-1.026h0l-.337,1.041Z" transform="translate(27.238 13.763)"/><path class="a" d="M73.809,35.525a.7.7,0,0,0-.337-.616,3.548,3.548,0,0,0-.85-.4c-.337-.1-.7-.22-1.085-.308a7.433,7.433,0,0,1-1.1-.381,2.61,2.61,0,0,1-.85-.6,1.378,1.378,0,0,1-.337-.953,1.466,1.466,0,0,1,.777-1.32,4.12,4.12,0,0,1,2.229-.5,12.052,12.052,0,0,1,1.466.088,5.645,5.645,0,0,1,1.1.249l-.381.806a4.9,4.9,0,0,0-.938-.205,9.574,9.574,0,0,0-1.363-.1,2.419,2.419,0,0,0-1.276.279.792.792,0,0,0-.425.645.7.7,0,0,0,.337.6,3.826,3.826,0,0,0,.85.411l1.1.337a6.348,6.348,0,0,1,1.085.4,2.683,2.683,0,0,1,.85.6,1.188,1.188,0,0,1,.337.894,1.569,1.569,0,0,1-.22.821,1.906,1.906,0,0,1-.645.63,3.4,3.4,0,0,1-1.026.4,6.26,6.26,0,0,1-1.364.147,9.486,9.486,0,0,1-1.715-.132A5.541,5.541,0,0,1,69,37.123l.411-.836a5.7,5.7,0,0,0,.938.235,6.818,6.818,0,0,0,1.393.132,6.715,6.715,0,0,0,.806,0,3.533,3.533,0,0,0,.66-.191,1.3,1.3,0,0,0,.44-.337.762.762,0,0,0,.161-.6Z" transform="translate(29.965 13.752)"/><path class="a" d="M79.181,35.528H75.765L74.856,37.3H73.61L77.2,30.47h.645L81.513,37.3h-1.32Zm-3.05-.792h2.7l-1-1.921L77.5,31.79h0l-.323,1.041Z" transform="translate(32.113 13.763)"/><path class="a" d="M85.445,34.254h-4.4v3.02H79.8V30.53h1.246v2.932h4.4V30.53h1.246v6.744H85.445Z" transform="translate(34.999 13.791)"/><path class="a" d="M5.815,10.008h15.57L29,23.614H13.425Z" transform="translate(2.419 4.326)"/><path class="a" d="M0,0H15.585L23.18,13.606H7.609Z" transform="translate(0)"/><path class="a" d="M10.65,0H26.22L33.83,13.606H18.259Z" transform="translate(5.964)"/></svg>