<svg xmlns="http://www.w3.org/2000/svg" width="63.198" height="24.225" viewBox="0 0 63.198 24.225"><defs><style>.a{fill:#fff;}.b{fill:#cc292b;}</style></defs><g transform="translate(0)"><path class="a" d="M1.8,3.262v.492H3.174V6.6H3.7V3.754H5.072V3.262Z" transform="translate(9.702 17.582)"/><path class="a" d="M3.847,3.262,2.224,6.6h.569l.428-.9H5.093l.435.9H6.09L4.461,3.262Zm.3.5.006-.019.006.019.7,1.451H3.457l.69-1.451Z" transform="translate(11.987 17.582)"/><path class="a" d="M5.388,5.614c0,.326-.268.486-.748.486H3.433V5.122h1.24c.479,0,.716.16.716.492h0ZM3.433,3.754H4.538c.479,0,.7.134.7.435v.006c0,.294-.211.441-.69.441H3.433ZM5.19,4.815a.724.724,0,0,0,.562-.709V4.1c0-.518-.377-.837-1.169-.837H2.909V6.6H4.7c.658,0,1.208-.32,1.208-.971V5.62a.817.817,0,0,0-.722-.805Z" transform="translate(15.68 17.582)"/><path class="a" d="M4.645,5.211,5.329,3.76l.006-.019.013.019.7,1.451Zm.39-1.949L3.412,6.6h.569L4.4,5.7H6.281l.435.9h.562L5.649,3.262Z" transform="translate(18.391 17.582)"/><path class="a" d="M6.965,4.911c0,.76-.473,1.189-1.316,1.189H4.626V3.754H5.668c.831,0,1.3.415,1.3,1.157h0ZM5.636,3.262H4.1V6.6H5.662C6.869,6.6,7.534,6,7.54,4.911h0c0-1.061-.677-1.649-1.9-1.649Z" transform="translate(22.078 17.582)"/><path class="a" d="M7.654,5.083c0,.78-.518,1.048-1.169,1.048-.748,0-1.214-.326-1.214-1.048V3.262H4.74V5.224c0,.978.722,1.419,1.744,1.419,1.048,0,1.693-.492,1.693-1.419V3.262H7.654V5.083Z" transform="translate(25.549 17.582)"/><path class="a" d="M5.937,6.1V3.262H5.413V6.6H8.065V6.1Z" transform="translate(29.176 17.582)"/><path class="a" d="M7.809,10.137H4.844c-1.968,0-3.093-.933-3.093-2.818V6.169H0V7.537c0,2.792,1.642,4.352,4.569,4.352H9.547V.8H7.809v9.342Z" transform="translate(0 4.285)"/><path class="a" d="M6.829,1.322H3.142V3.054H7.078a1.951,1.951,0,0,1,2.16,2.23V7.3H1.8V9.048h9.08V5.45c0-2.722-1.272-4.128-4.051-4.128Z" transform="translate(9.702 7.126)"/><path class="a" d="M5.561,2.747a1.012,1.012,0,1,0,0,2.013,1.011,1.011,0,0,0,1.1-1.016A1.024,1.024,0,0,0,5.561,2.747Z" transform="translate(23.948 14.806)"/><path class="a" d="M6.257,2.787a1,1,0,0,0,1.1-1,1.021,1.021,0,0,0-1.1-1,1.019,1.019,0,0,0-1.093,1A1,1,0,0,0,6.257,2.787Z" transform="translate(27.834 4.274)"/><path class="a" d="M15.611,10.137H11.176V4.163H9.438v5.975H5.3V.8H3.559V11.888H17.342V4.163H15.611Z" transform="translate(19.183 4.285)"/><path class="a" d="M6.749.793a1.019,1.019,0,0,0-1.093,1,1,1,0,0,0,1.093,1,.994.994,0,0,0,1.1-1A1.013,1.013,0,0,0,6.749.793Z" transform="translate(30.486 4.274)"/><path class="b" d="M11.783,6.162,8.863,1.1,6.511,5.178,12.352,15.3l5.272-9.138Z" transform="translate(35.095 5.934)"/><path class="b" d="M17.144,10.122,13.655,4.07h6.984L18.287,0H6.6l5.841,10.122Z" transform="translate(35.574)"/><path class="b" d="M8.24.947l2.92,5.061L8.24,11.069h4.7L18.784.947Z" transform="translate(44.414 5.104)"/></g></svg>